<mxfile host="app.diagrams.net" agent="Mozilla/5.0 (Macintosh; Intel Mac OS X 10_15_7) AppleWebKit/537.36 (KHTML, like Gecko) Chrome/131.0.0.0 Safari/537.36" version="26.0.5">
  <diagram name="Page-1" id="nOZ05OA3yWBOvBa_NTWG">
    <mxGraphModel dx="848" dy="2395" grid="0" gridSize="10" guides="1" tooltips="1" connect="1" arrows="1" fold="1" page="0" pageScale="1" pageWidth="850" pageHeight="1100" math="0" shadow="0">
      <root>
        <mxCell id="0" />
        <mxCell id="1" parent="0" />
        <mxCell id="vHa2xqBBrIYWRE3_gEBU-23" value="IDuck" style="html=1;whiteSpace=wrap;" vertex="1" parent="1">
          <mxGeometry x="213" y="-1043" width="392" height="72" as="geometry" />
        </mxCell>
        <mxCell id="vHa2xqBBrIYWRE3_gEBU-24" value="MallarDuck" style="swimlane;fontStyle=0;childLayout=stackLayout;horizontal=1;startSize=26;fillColor=none;horizontalStack=0;resizeParent=1;resizeParentMax=0;resizeLast=0;collapsible=1;marginBottom=0;whiteSpace=wrap;html=1;" vertex="1" parent="1">
          <mxGeometry x="213" y="-851" width="140" height="78" as="geometry" />
        </mxCell>
        <mxCell id="vHa2xqBBrIYWRE3_gEBU-25" value="Quck()" style="text;strokeColor=none;fillColor=none;align=left;verticalAlign=top;spacingLeft=4;spacingRight=4;overflow=hidden;rotatable=0;points=[[0,0.5],[1,0.5]];portConstraint=eastwest;whiteSpace=wrap;html=1;" vertex="1" parent="vHa2xqBBrIYWRE3_gEBU-24">
          <mxGeometry y="26" width="140" height="26" as="geometry" />
        </mxCell>
        <mxCell id="vHa2xqBBrIYWRE3_gEBU-26" value="Fly()" style="text;strokeColor=none;fillColor=none;align=left;verticalAlign=top;spacingLeft=4;spacingRight=4;overflow=hidden;rotatable=0;points=[[0,0.5],[1,0.5]];portConstraint=eastwest;whiteSpace=wrap;html=1;" vertex="1" parent="vHa2xqBBrIYWRE3_gEBU-24">
          <mxGeometry y="52" width="140" height="26" as="geometry" />
        </mxCell>
        <mxCell id="vHa2xqBBrIYWRE3_gEBU-28" value="DroneAdapter" style="swimlane;fontStyle=0;childLayout=stackLayout;horizontal=1;startSize=26;fillColor=none;horizontalStack=0;resizeParent=1;resizeParentMax=0;resizeLast=0;collapsible=1;marginBottom=0;whiteSpace=wrap;html=1;" vertex="1" parent="1">
          <mxGeometry x="585" y="-851" width="140" height="200" as="geometry" />
        </mxCell>
        <mxCell id="vHa2xqBBrIYWRE3_gEBU-29" value="Quack()" style="text;strokeColor=none;fillColor=none;align=left;verticalAlign=top;spacingLeft=4;spacingRight=4;overflow=hidden;rotatable=0;points=[[0,0.5],[1,0.5]];portConstraint=eastwest;whiteSpace=wrap;html=1;" vertex="1" parent="vHa2xqBBrIYWRE3_gEBU-28">
          <mxGeometry y="26" width="140" height="26" as="geometry" />
        </mxCell>
        <mxCell id="vHa2xqBBrIYWRE3_gEBU-30" value="Fly()" style="text;strokeColor=none;fillColor=none;align=left;verticalAlign=top;spacingLeft=4;spacingRight=4;overflow=hidden;rotatable=0;points=[[0,0.5],[1,0.5]];portConstraint=eastwest;whiteSpace=wrap;html=1;" vertex="1" parent="vHa2xqBBrIYWRE3_gEBU-28">
          <mxGeometry y="52" width="140" height="26" as="geometry" />
        </mxCell>
        <mxCell id="vHa2xqBBrIYWRE3_gEBU-31" value="Drone" style="text;strokeColor=none;fillColor=none;align=left;verticalAlign=top;spacingLeft=4;spacingRight=4;overflow=hidden;rotatable=0;points=[[0,0.5],[1,0.5]];portConstraint=eastwest;whiteSpace=wrap;html=1;" vertex="1" parent="vHa2xqBBrIYWRE3_gEBU-28">
          <mxGeometry y="78" width="140" height="122" as="geometry" />
        </mxCell>
        <mxCell id="vHa2xqBBrIYWRE3_gEBU-32" style="edgeStyle=none;curved=1;rounded=0;orthogonalLoop=1;jettySize=auto;html=1;entryX=0.173;entryY=1.014;entryDx=0;entryDy=0;entryPerimeter=0;fontSize=12;startSize=8;endSize=8;" edge="1" parent="1" source="vHa2xqBBrIYWRE3_gEBU-24" target="vHa2xqBBrIYWRE3_gEBU-23">
          <mxGeometry relative="1" as="geometry" />
        </mxCell>
        <mxCell id="vHa2xqBBrIYWRE3_gEBU-33" style="edgeStyle=none;curved=1;rounded=0;orthogonalLoop=1;jettySize=auto;html=1;entryX=0.806;entryY=0.986;entryDx=0;entryDy=0;entryPerimeter=0;fontSize=12;startSize=8;endSize=8;" edge="1" parent="1" source="vHa2xqBBrIYWRE3_gEBU-28" target="vHa2xqBBrIYWRE3_gEBU-23">
          <mxGeometry relative="1" as="geometry" />
        </mxCell>
        <mxCell id="vHa2xqBBrIYWRE3_gEBU-34" value="Drone" style="swimlane;fontStyle=0;childLayout=stackLayout;horizontal=1;startSize=26;fillColor=none;horizontalStack=0;resizeParent=1;resizeParentMax=0;resizeLast=0;collapsible=1;marginBottom=0;whiteSpace=wrap;html=1;" vertex="1" parent="1">
          <mxGeometry x="218" y="-760" width="140" height="104" as="geometry" />
        </mxCell>
        <mxCell id="vHa2xqBBrIYWRE3_gEBU-35" value="Beep()" style="text;strokeColor=none;fillColor=none;align=left;verticalAlign=top;spacingLeft=4;spacingRight=4;overflow=hidden;rotatable=0;points=[[0,0.5],[1,0.5]];portConstraint=eastwest;whiteSpace=wrap;html=1;" vertex="1" parent="vHa2xqBBrIYWRE3_gEBU-34">
          <mxGeometry y="26" width="140" height="26" as="geometry" />
        </mxCell>
        <mxCell id="vHa2xqBBrIYWRE3_gEBU-36" value="SpinRotors()" style="text;strokeColor=none;fillColor=none;align=left;verticalAlign=top;spacingLeft=4;spacingRight=4;overflow=hidden;rotatable=0;points=[[0,0.5],[1,0.5]];portConstraint=eastwest;whiteSpace=wrap;html=1;" vertex="1" parent="vHa2xqBBrIYWRE3_gEBU-34">
          <mxGeometry y="52" width="140" height="26" as="geometry" />
        </mxCell>
        <mxCell id="vHa2xqBBrIYWRE3_gEBU-37" value="TakeOff()" style="text;strokeColor=none;fillColor=none;align=left;verticalAlign=top;spacingLeft=4;spacingRight=4;overflow=hidden;rotatable=0;points=[[0,0.5],[1,0.5]];portConstraint=eastwest;whiteSpace=wrap;html=1;" vertex="1" parent="vHa2xqBBrIYWRE3_gEBU-34">
          <mxGeometry y="78" width="140" height="26" as="geometry" />
        </mxCell>
        <mxCell id="vHa2xqBBrIYWRE3_gEBU-38" value="" style="endArrow=diamondThin;endFill=1;endSize=24;html=1;rounded=0;fontSize=12;curved=1;entryX=0.007;entryY=0.23;entryDx=0;entryDy=0;entryPerimeter=0;" edge="1" parent="1" target="vHa2xqBBrIYWRE3_gEBU-31">
          <mxGeometry width="160" relative="1" as="geometry">
            <mxPoint x="358" y="-747" as="sourcePoint" />
            <mxPoint x="518" y="-747" as="targetPoint" />
          </mxGeometry>
        </mxCell>
        <mxCell id="vHa2xqBBrIYWRE3_gEBU-40" style="edgeStyle=none;curved=1;rounded=0;orthogonalLoop=1;jettySize=auto;html=1;entryX=0;entryY=0.5;entryDx=0;entryDy=0;fontSize=12;startSize=8;endSize=8;" edge="1" parent="1" source="vHa2xqBBrIYWRE3_gEBU-39" target="vHa2xqBBrIYWRE3_gEBU-23">
          <mxGeometry relative="1" as="geometry" />
        </mxCell>
        <mxCell id="vHa2xqBBrIYWRE3_gEBU-39" value="Client" style="html=1;whiteSpace=wrap;" vertex="1" parent="1">
          <mxGeometry x="8" y="-1034" width="110" height="50" as="geometry" />
        </mxCell>
      </root>
    </mxGraphModel>
  </diagram>
</mxfile>
